<?xml version="1.0" standalone="no"?>
<!DOCTYPE svg PUBLIC "-//W3C//DTD SVG 20010904//EN"
 "http://www.w3.org/TR/2001/REC-SVG-20010904/DTD/svg10.dtd">
<svg version="1.0" xmlns="http://www.w3.org/2000/svg"
 width="192.000000pt" height="192.000000pt" viewBox="0 0 192.000000 192.000000"
 preserveAspectRatio="xMidYMid meet">
<metadata>
Created by potrace 1.11, written by Peter Selinger 2001-2013
</metadata>
<g transform="translate(0.000000,192.000000) scale(0.100000,-0.100000)"
fill="#000000" stroke="none">
<path d="M810 1804 c-209 -40 -372 -157 -458 -329 -53 -106 -72 -185 -76 -306
-2 -42 -7 -82 -11 -89 -5 -8 -4 -11 2 -7 7 4 13 -14 17 -47 4 -29 14 -74 21
-101 8 -26 12 -51 10 -56 -3 -4 0 -11 7 -16 7 -4 25 -32 39 -60 15 -29 23 -50
19 -48 -5 3 -12 1 -15 -5 -4 -6 -3 -10 2 -9 17 3 36 -1 30 -7 -3 -3 -2 -11 4
-18 5 -6 26 -31 47 -55 38 -45 47 -68 24 -63 -8 1 -11 -2 -8 -7 4 -5 17 -8 29
-5 13 2 32 -4 43 -14 21 -19 76 -56 84 -57 14 -1 30 -18 30 -31 0 -8 -5 -12
-10 -9 -6 4 -7 11 -4 17 5 7 2 8 -6 3 -9 -6 -11 -4 -5 6 5 8 5 11 0 7 -4 -4
-13 -4 -19 2 -7 5 -17 5 -26 -1 -12 -8 -11 -9 5 -7 13 2 19 -2 17 -12 -2 -8 0
-12 4 -7 4 4 16 0 26 -10 10 -9 18 -13 18 -8 0 4 8 1 17 -6 9 -8 14 -9 10 -3
-4 7 0 15 9 18 24 9 28 7 15 -8 -10 -12 -8 -13 8 -9 13 3 21 1 21 -8 0 -7 3
-9 6 -6 4 4 1 14 -7 24 -9 11 -10 14 -1 9 7 -4 12 -2 12 6 0 8 3 9 8 3 6 -10
23 -12 37 -5 5 3 19 6 33 9 4 1 0 6 -8 12 -13 9 -13 10 0 8 36 -4 42 1 38 30
-2 17 -1 28 4 25 16 -10 8 9 -9 22 -16 12 -16 15 -3 25 13 9 13 10 0 6 -22 -6
-50 11 -50 32 0 10 -7 25 -17 32 -15 13 -15 12 -4 -11 11 -24 11 -24 -3 -5 -8
11 -20 25 -26 32 -5 7 -10 18 -10 24 0 7 -3 9 -7 6 -8 -8 -53 52 -53 71 0 7
-7 20 -15 29 -8 8 -13 19 -10 24 4 5 1 9 -4 9 -6 0 -11 5 -11 11 0 5 5 7 10 4
10 -6 15 9 10 30 -9 45 -9 47 8 41 14 -5 13 -3 -2 9 -11 8 -16 15 -11 15 4 0
0 9 -10 20 -10 11 -21 18 -25 15 -4 -2 -7 2 -7 10 0 10 5 11 18 4 12 -6 20 -5
25 3 4 7 3 8 -4 4 -7 -4 -12 -3 -12 3 0 5 6 12 13 15 6 2 1 4 -13 3 -16 -1
-24 3 -22 12 1 7 -3 19 -9 27 -7 9 -8 14 -1 14 6 0 13 -6 15 -12 4 -10 6 -10
6 0 1 7 5 11 10 7 5 -3 13 0 17 6 4 8 3 9 -4 5 -7 -4 -12 -2 -12 4 0 6 -4 9
-9 6 -5 -3 -11 3 -14 15 -5 19 -4 19 18 5 15 -10 26 -12 30 -6 4 6 1 9 -7 8
-7 -2 -13 4 -13 12 0 8 7 14 15 12 8 -2 11 0 7 4 -11 11 -38 14 -31 3 3 -5 0
-9 -6 -9 -7 0 -9 8 -4 22 6 21 5 22 -12 8 -13 -10 -11 -6 4 11 23 26 26 48 7
61 -6 5 -4 8 4 8 11 0 9 4 -5 15 -14 11 -15 14 -2 9 13 -4 16 0 14 19 -2 18 1
24 10 20 20 -8 17 14 -3 27 -16 10 -16 11 2 5 11 -4 27 -8 35 -10 8 -1 9 0 2
2 -7 3 -9 9 -6 15 4 6 2 8 -3 5 -6 -4 -17 1 -24 11 -13 15 -12 16 4 3 19 -15
23 -2 5 18 -11 10 -10 12 2 9 9 -2 14 4 14 15 -2 16 0 17 20 4 20 -14 22 -13
23 6 1 11 8 24 15 30 9 6 8 7 -6 3 -14 -5 -17 -2 -12 10 3 8 6 20 6 25 0 5 5
9 11 9 5 0 8 -4 5 -9 -3 -5 2 -15 12 -22 15 -12 16 -12 5 2 -13 16 -8 29 9 29
5 0 6 -5 2 -12 -4 -7 -3 -8 5 -4 6 4 9 12 6 17 -4 5 1 12 9 15 9 3 16 10 16
16 0 5 -13 0 -29 -12 -19 -13 -32 -17 -36 -10 -4 6 -1 9 7 8 8 -2 12 5 11 17
-1 11 0 14 3 8 3 -7 10 -13 15 -13 6 0 8 4 5 9 -3 5 2 15 11 22 12 10 14 10 9
2 -4 -8 -1 -13 8 -13 19 0 20 12 4 29 -11 10 -9 11 6 5 14 -5 17 -4 12 5 -4 6
-4 11 1 10 4 -1 10 0 13 1 3 1 14 3 25 5 43 8 54 11 70 25 14 11 16 11 13 -1
-2 -8 6 -15 19 -17 14 -2 20 -8 16 -18 -3 -8 0 -14 7 -14 6 0 8 5 5 10 -3 6 1
13 9 16 9 3 13 11 9 18 -4 7 -1 7 9 -1 8 -7 19 -9 23 -5 5 4 5 1 1 -6 -4 -7
-11 -10 -16 -7 -5 3 -12 0 -16 -7 -4 -7 -4 -10 1 -6 4 4 15 2 23 -5 9 -6 13
-7 10 -2 -4 6 2 17 14 24 11 7 17 8 13 2 -6 -10 7 -16 28 -12 5 1 6 -3 2 -9
-5 -9 1 -12 22 -9 3 0 10 -6 15 -15 5 -9 13 -14 19 -11 5 4 6 -2 2 -11 -4 -12
-3 -15 5 -10 7 4 12 3 12 -3 0 -5 -6 -12 -12 -15 -7 -3 -4 -4 7 -1 23 5 56
-34 59 -70 0 -13 4 -21 7 -19 4 2 9 -3 12 -10 3 -8 1 -17 -6 -20 -7 -2 -5 -5
5 -5 11 -1 15 -9 14 -30 -1 -17 1 -28 5 -26 13 9 26 -98 27 -215 1 -68 -3
-122 -9 -125 -5 -4 -7 -11 -3 -16 8 -13 -13 -114 -38 -179 -30 -77 -76 -146
-139 -209 -64 -63 -273 -206 -289 -196 -6 4 -9 1 -8 -7 2 -7 -5 -12 -14 -12
-10 1 -16 -2 -13 -6 2 -4 -8 -13 -23 -21 -63 -33 -149 -115 -157 -149 -4 -17
-1 -39 6 -52 7 -13 12 -26 11 -30 -1 -4 6 -4 15 -1 11 4 14 3 9 -5 -4 -7 -2
-12 3 -12 6 0 11 6 11 13 1 6 7 1 15 -13 8 -14 15 -20 15 -15 0 6 8 1 17 -10
12 -15 14 -16 10 -3 -5 13 -1 16 16 15 22 -2 27 3 27 25 0 6 -6 4 -13 -6 -12
-16 -14 -16 -14 -2 0 14 9 20 28 18 4 -1 15 8 24 18 10 11 23 20 29 20 6 0 4
-5 -4 -10 -12 -8 -12 -10 5 -11 11 0 27 -2 36 -4 12 -2 15 5 14 27 -1 20 1 26
9 18 13 -13 29 -13 21 -1 -3 5 -1 12 4 15 5 4 12 2 16 -4 3 -5 11 -10 17 -10
6 0 6 6 -2 15 -10 13 -6 12 19 -2 28 -16 33 -16 41 -3 6 9 10 10 10 3 0 -6 -5
-15 -10 -18 -6 -4 -5 -12 5 -21 12 -12 18 -12 35 -2 17 11 22 11 29 0 4 -8 11
-13 15 -13 19 3 26 0 26 -10 0 -8 -5 -8 -15 1 -8 7 -15 8 -15 4 0 -5 9 -15 21
-22 12 -8 18 -9 14 -3 -3 6 -2 11 4 11 6 0 7 8 4 18 -7 16 -6 16 11 -1 10 -9
21 -15 26 -12 11 7 7 -28 -5 -38 -6 -5 -2 -6 9 -3 14 5 17 2 12 -11 -4 -10 5
-4 19 12 24 28 25 29 16 5 -8 -23 -6 -25 25 -26 19 -1 34 2 34 7 0 4 -9 6 -20
4 -13 -3 -18 0 -14 7 5 7 2 8 -7 3 -12 -7 -12 -5 -1 6 11 11 14 12 21 1 5 -8
11 -13 15 -12 4 1 12 0 19 -3 9 -3 9 -7 0 -19 -10 -12 -10 -15 2 -15 8 0 12 4
9 9 -3 4 0 8 6 8 6 0 8 5 4 13 -6 9 -4 9 8 -1 10 -8 19 -9 22 -3 3 5 1 12 -4
14 -6 3 -5 4 2 2 7 -1 12 -8 10 -14 -3 -14 34 -15 43 -1 3 6 -2 10 -11 10 -10
0 -15 3 -11 6 3 4 14 4 23 0 13 -5 14 -9 5 -20 -9 -11 -9 -16 0 -22 7 -4 9 -3
6 3 -4 6 4 11 18 11 14 0 22 -5 18 -11 -3 -5 -1 -7 5 -4 5 4 8 17 5 28 -6 20
-7 20 -18 5 -12 -15 -13 -15 -17 2 -4 13 0 18 14 17 10 -1 23 -6 29 -12 6 -6
19 -9 28 -5 14 5 15 4 1 -14 -14 -18 -14 -18 3 -5 17 13 17 15 0 31 -10 10
-22 15 -27 12 -5 -3 -6 0 -2 7 6 9 11 9 21 1 17 -14 64 -20 70 -9 3 4 1 10 -5
14 -12 7 -4 25 11 25 6 0 8 -4 4 -9 -3 -5 -2 -12 3 -15 12 -7 12 26 0 41 -6 7
-4 14 3 19 7 4 9 3 6 -3 -4 -6 0 -14 9 -17 10 -4 14 -1 12 6 -3 7 4 21 13 32
10 10 16 24 12 29 -3 6 -1 7 5 3 7 -4 12 -3 12 2 0 6 8 13 17 16 16 6 16 5 0
-12 -16 -17 -16 -20 -3 -25 9 -4 18 -1 22 5 4 7 3 8 -4 4 -7 -4 -12 -3 -12 2
0 17 13 22 28 9 11 -9 11 -4 -2 16 -10 15 -15 27 -11 27 4 0 2 7 -5 15 -6 8
-9 19 -5 25 11 17 23 2 20 -25 -2 -14 0 -27 4 -29 6 -4 7 55 1 62 -1 1 -3 6
-4 11 0 6 -7 16 -13 22 -7 7 -13 21 -13 30 0 17 -19 29 -46 29 -8 0 -31 -15
-51 -34 -21 -18 -51 -40 -68 -48 -39 -20 -124 -17 -195 8 -30 10 -57 19 -60
19 -20 6 -40 19 -40 27 0 5 5 6 10 3 6 -3 10 0 10 7 0 10 3 9 9 -2 6 -8 7 -18
4 -24 -3 -5 -1 -6 5 -2 8 5 8 15 2 34 l-10 27 20 -24 c22 -25 26 -21 10 9 -8
16 -8 18 5 14 8 -4 15 -11 15 -17 0 -6 6 -3 13 8 8 10 19 15 26 11 7 -5 10 -2
9 6 -2 7 3 12 10 10 8 -1 11 2 8 7 -3 5 1 14 8 20 10 8 16 9 21 1 10 -16 26
-12 23 8 -2 12 3 16 16 14 15 -3 16 -1 5 11 -12 12 -15 12 -25 -2 -7 -9 -10
-20 -7 -26 4 -5 2 -6 -2 -2 -12 10 -15 38 -4 31 5 -3 9 -1 9 3 0 5 6 18 14 29
14 19 14 19 13 -1 -1 -12 4 -20 13 -20 8 0 15 7 15 15 0 9 8 14 20 12 16 -2
17 -1 5 7 -9 7 -19 6 -27 -1 -9 -7 -13 -7 -13 1 0 6 5 11 11 11 5 0 7 6 3 13
-6 8 -3 8 9 -1 14 -12 20 -11 38 2 22 15 22 15 1 13 -11 0 -18 -5 -15 -11 3
-5 1 -6 -5 -2 -20 12 -13 23 13 25 48 3 52 4 64 24 9 13 9 17 1 12 -13 -8 -8
70 5 83 4 4 4 -4 0 -17 -6 -18 -4 -22 6 -15 12 6 12 5 1 -8 -9 -11 -10 -18 -2
-23 6 -4 10 -3 9 2 -1 4 0 10 1 13 8 16 4 60 -5 60 -5 0 -3 5 5 10 10 6 20 4
32 -7 11 -10 18 -12 18 -5 0 7 -4 12 -10 12 -15 0 -12 26 5 40 9 7 13 15 10
18 -2 3 2 10 11 16 13 10 13 12 -5 13 -14 1 -19 -3 -16 -17 3 -13 -1 -17 -12
-13 -10 4 -11 8 -3 13 6 4 11 11 10 16 -1 5 9 11 21 14 21 5 21 6 5 23 -14 14
-15 17 -3 17 9 0 18 -6 20 -12 3 -8 6 -6 6 5 1 16 -11 22 -33 18 -5 -1 -4 5 4
13 13 17 25 22 16 8 -3 -5 1 -9 8 -9 8 0 12 7 11 16 -2 9 -4 22 -4 29 -1 7 -5
11 -10 7 -10 -6 -7 27 4 45 3 6 1 10 -6 10 -6 0 -1 9 12 19 20 17 22 22 10 33
-8 7 -11 8 -8 2 4 -7 -1 -18 -11 -25 -14 -11 -15 -11 -5 1 10 11 9 16 -5 27
-16 12 -16 13 1 7 10 -4 17 -3 16 2 -4 26 2 45 14 38 9 -5 9 -4 0 6 -6 7 -9
20 -6 29 4 13 3 14 -5 1 -6 -8 -8 -18 -6 -22 3 -4 0 -8 -6 -8 -8 0 -9 7 -5 18
11 28 13 46 5 67 -4 12 -2 31 6 46 11 22 11 26 -1 26 -8 0 -12 -3 -10 -7 2 -3
-1 -12 -6 -20 -7 -11 -8 -8 -5 10 3 14 5 29 5 33 1 5 7 5 14 1 9 -5 9 -4 0 6
-6 7 -9 19 -6 28 5 12 1 14 -15 10 -16 -5 -20 -2 -17 13 2 10 -1 21 -6 25 -5
3 -7 15 -3 26 5 16 3 19 -7 12 -9 -5 -8 2 4 19 9 15 13 27 7 27 -5 0 -10 -4
-10 -10 0 -5 -5 -10 -11 -10 -6 0 -9 9 -6 20 3 11 2 18 -3 15 -12 -7 -42 44
-36 60 3 8 0 17 -6 21 -7 4 -8 3 -4 -4 4 -7 2 -12 -3 -12 -6 0 -11 9 -11 21 0
11 -4 17 -10 14 -5 -3 -10 0 -10 8 0 8 -7 18 -16 21 -8 3 -12 11 -9 16 4 6 1
9 -7 8 -7 -2 -12 4 -10 12 2 8 0 12 -4 8 -10 -11 -65 32 -58 44 4 6 2 8 -3 5
-6 -4 -37 8 -69 25 -33 18 -68 34 -79 35 -10 2 -22 7 -25 11 -3 4 -12 8 -20 8
-8 1 -28 5 -45 9 -36 9 -280 15 -315 9z m180 -164 c0 -5 -5 -10 -11 -10 -5 0
-7 5 -4 10 3 6 8 10 11 10 2 0 4 -4 4 -10z m-290 -200 c0 -5 -2 -10 -4 -10 -3
0 -8 5 -11 10 -3 6 -1 10 4 10 6 0 11 -4 11 -10z m907 -115 c0 -8 -4 -15 -9
-15 -10 0 -11 14 -1 23 9 10 10 9 10 -8z m-972 -366 c2 -9 -3 -16 -9 -16 -7 0
-13 9 -13 19 -2 23 19 19 22 -3z m995 -25 c0 -2 -9 0 -20 6 -11 6 -20 13 -20
16 0 2 9 0 20 -6 11 -6 20 -13 20 -16z m-994 -21 c-2 -10 2 -22 8 -26 7 -6 6
-7 -4 -4 -8 2 -14 10 -12 16 1 6 -2 11 -8 11 -5 0 -10 5 -10 10 0 6 6 10 14
10 8 0 13 -8 12 -17z m871 -279 c-2 -3 -17 -7 -33 -9 -24 -4 -26 -3 -11 6 9 5
15 15 11 21 -4 6 3 5 16 -2 12 -6 20 -14 17 -16z m-177 -134 c0 -5 -4 -10 -10
-10 -5 0 -10 5 -10 10 0 6 5 10 10 10 6 0 10 -4 10 -10z m-655 -19 c3 -5 2
-12 -3 -15 -5 -3 -9 1 -9 9 0 17 3 19 12 6z m610 -27 c-31 -24 -48 -23 -38 2
3 10 8 12 12 5 4 -6 12 -7 21 -1 13 9 13 10 0 10 -13 0 -13 2 0 9 28 19 33 -3
5 -25z m-100 -23 c3 -5 2 -12 -3 -15 -5 -3 -9 1 -9 9 0 17 3 19 12 6z m-355
-252 c0 -5 4 -7 10 -4 6 3 7 -1 4 -10 -4 -9 -7 -15 -8 -13 -1 2 -8 11 -15 21
-9 11 -10 17 -2 17 6 0 11 -5 11 -11z m188 -3 c-7 -8 -17 -12 -22 -9 -4 3 -2
9 5 14 22 13 31 11 17 -5z m488 -22 c-4 -9 -1 -24 6 -33 12 -14 11 -14 -4 -2
-14 11 -18 11 -18 1 0 -8 -2 -11 -5 -8 -3 3 0 17 6 32 13 28 25 36 15 10z
m-796 -34 c0 -16 -17 -20 -28 -7 -8 10 -6 13 9 14 10 1 19 -2 19 -7z m460 -6
c0 -8 -5 -12 -10 -9 -6 4 -8 11 -5 16 9 14 15 11 15 -7z"/>
<path d="M912 1618 c-7 -7 -12 -8 -12 -4 0 5 -11 1 -24 -8 -16 -10 -26 -12
-28 -5 -2 7 -9 5 -17 -5 -12 -14 -11 -16 7 -13 12 2 25 6 28 10 4 4 13 2 21
-5 10 -8 12 -8 8 3 -4 10 3 15 20 17 14 1 24 -2 21 -6 -3 -5 1 -9 9 -9 13 0
12 4 -2 19 -19 21 -16 21 -31 6z"/>
<path d="M1051 1598 c-1 -20 14 -24 25 -6 4 6 3 8 -4 4 -5 -3 -13 0 -15 6 -3
8 -6 6 -6 -4z"/>
<path d="M1067 1559 c7 -7 15 -10 18 -7 3 3 -2 9 -12 12 -14 6 -15 5 -6 -5z"/>
<path d="M1110 1559 c0 -5 5 -7 10 -4 6 3 10 8 10 11 0 2 -4 4 -10 4 -5 0 -10
-5 -10 -11z"/>
<path d="M805 1540 c-3 -6 1 -7 9 -4 18 7 21 14 7 14 -6 0 -13 -4 -16 -10z"/>
<path d="M1533 1534 c-3 -8 -2 -19 3 -24 5 -5 9 1 9 16 0 28 -3 30 -12 8z"/>
<path d="M1158 1503 c7 -3 16 -2 19 1 4 3 -2 6 -13 5 -11 0 -14 -3 -6 -6z"/>
<path d="M1187 1487 c-3 -8 1 -14 9 -14 16 0 19 13 5 21 -5 3 -11 0 -14 -7z"/>
<path d="M666 1401 c-3 -5 0 -14 7 -19 10 -8 13 -6 14 9 2 19 -11 26 -21 10z"/>
<path d="M1580 1398 c0 -4 6 -8 14 -8 8 0 17 4 20 8 2 4 -4 8 -15 8 -10 0 -19
-4 -19 -8z"/>
<path d="M1604 1374 c-18 -14 -18 -15 4 -4 12 6 22 13 22 15 0 8 -5 6 -26 -11z"/>
<path d="M639 1308 c-8 -20 -3 -58 8 -62 10 -4 11 -2 4 11 -6 12 -5 21 7 30
15 12 15 12 -2 6 -13 -4 -17 -3 -12 5 4 7 5 12 2 12 -3 0 -6 -1 -7 -2z"/>
<path d="M730 1125 l0 -135 84 0 c82 0 85 1 105 29 12 16 21 32 21 35 0 3 -31
6 -70 6 l-70 0 0 65 0 65 70 0 c39 0 70 3 70 6 0 3 -9 19 -21 35 -20 28 -23
29 -105 29 l-84 0 0 -135z"/>
<path d="M989 1233 c-7 -16 -15 -31 -17 -35 -2 -4 22 -8 53 -10 l56 -3 -60
-65 c-59 -63 -68 -85 -48 -117 6 -9 35 -13 90 -13 l82 0 22 35 23 34 -65 3
-65 3 53 60 c61 69 71 89 57 116 -9 16 -22 19 -89 19 -75 0 -78 -1 -92 -27z"/>
<path d="M1625 1241 c-3 -5 -2 -12 3 -15 5 -3 9 1 9 9 0 17 -3 19 -12 6z"/>
<path d="M625 1201 c-6 -11 9 -23 19 -14 9 9 7 23 -3 23 -6 0 -12 -4 -16 -9z"/>
<path d="M1641 1184 c11 -3 15 -12 12 -23 -3 -10 -1 -21 4 -24 5 -3 8 7 7 21
0 19 -7 28 -20 29 -14 1 -15 1 -3 -3z"/>
<path d="M810 1125 c0 -30 3 -35 24 -35 22 0 66 43 66 64 0 3 -20 6 -45 6 -45
0 -45 0 -45 -35z"/>
<path d="M1635 1100 c-3 -5 -1 -10 4 -10 6 0 11 5 11 10 0 6 -2 10 -4 10 -3 0
-8 -4 -11 -10z"/>
<path d="M616 1054 c-3 -7 3 -10 15 -7 26 7 32 19 9 19 -11 0 -22 -6 -24 -12z"/>
<path d="M1633 1024 c3 -4 2 -15 -3 -24 -7 -14 -5 -19 10 -23 11 -3 23 -1 26
4 3 5 0 8 -7 7 -6 -2 -14 3 -17 11 -3 8 0 11 7 7 7 -5 9 -1 5 8 -3 9 -11 16
-17 16 -6 0 -7 -3 -4 -6z"/>
<path d="M665 860 c-3 -6 1 -7 9 -4 18 7 21 14 7 14 -6 0 -13 -4 -16 -10z"/>
<path d="M660 826 c7 -7 13 -7 20 0 6 6 3 10 -10 10 -13 0 -16 -4 -10 -10z"/>
<path d="M690 760 c6 -11 13 -20 16 -20 2 0 0 9 -6 20 -6 11 -13 20 -16 20 -2
0 0 -9 6 -20z"/>
<path d="M1550 719 c0 -5 5 -7 10 -4 6 3 10 8 10 11 0 2 -4 4 -10 4 -5 0 -10
-5 -10 -11z"/>
<path d="M402 664 c10 -10 20 -16 22 -13 3 3 -5 11 -17 18 -21 13 -21 12 -5
-5z"/>
<path d="M446 627 c3 -10 9 -15 12 -12 3 3 0 11 -7 18 -10 9 -11 8 -5 -6z"/>
<path d="M513 563 c4 -6 1 -14 -5 -17 -7 -3 -4 -4 7 -3 11 1 20 -4 20 -12 0
-8 13 -15 30 -17 27 -3 28 -2 10 8 -11 6 -31 20 -44 32 -13 11 -21 16 -18 9z"/>
<path d="M864 511 c0 -11 5 -17 13 -14 10 4 11 9 2 19 -15 18 -15 18 -15 -5z"/>
<path d="M820 475 c-7 -8 -16 -13 -20 -10 -5 3 -11 1 -15 -4 -3 -5 -14 -8 -24
-6 -14 3 -18 -1 -14 -16 3 -10 9 -19 14 -19 5 0 6 7 3 15 -4 10 0 13 15 10 12
-2 25 -6 30 -10 5 -3 13 0 17 6 5 8 3 9 -6 4 -8 -5 -11 -3 -8 6 3 8 11 14 18
14 7 0 15 6 18 13 5 17 -13 15 -28 -3z"/>
<path d="M1273 405 c0 -8 4 -12 9 -9 5 3 6 10 3 15 -9 13 -12 11 -12 -6z"/>
<path d="M1595 210 c-4 -6 -8 -22 -11 -36 -4 -22 -3 -23 10 -12 8 7 10 15 4
17 -5 1 -1 9 8 15 11 9 13 15 6 20 -6 3 -13 2 -17 -4z"/>
<path d="M896 186 c3 -8 13 -17 22 -21 13 -5 13 -2 -3 15 -21 24 -26 25 -19 6z"/>
<path d="M935 180 c3 -5 11 -10 16 -10 6 0 7 5 4 10 -3 6 -11 10 -16 10 -6 0
-7 -4 -4 -10z"/>
<path d="M1022 147 c-8 -10 -6 -13 11 -14 12 0 16 1 9 4 -6 3 -10 9 -6 14 8
14 -2 11 -14 -4z"/>
<path d="M771 136 c-10 -12 -6 -26 10 -26 11 0 19 29 10 35 -5 2 -14 -1 -20
-9z"/>
<path d="M810 119 c0 -5 5 -7 10 -4 6 3 10 8 10 11 0 2 -4 4 -10 4 -5 0 -10
-5 -10 -11z"/>
<path d="M1113 115 c0 -8 4 -12 9 -9 4 3 8 9 8 15 0 5 -4 9 -8 9 -5 0 -9 -7
-9 -15z"/>
<path d="M646 83 c-6 -14 -5 -15 5 -6 7 7 10 15 7 18 -3 3 -9 -2 -12 -12z"/>
<path d="M1290 58 c0 -4 4 -8 9 -8 6 0 12 4 15 8 3 5 -1 9 -9 9 -8 0 -15 -4
-15 -9z"/>
</g>
</svg>
